<svg id="Layer_1" data-name="Layer 1" xmlns="http://www.w3.org/2000/svg" viewBox="0 0 155.91 155.91"><path d="M86.47,71.92a6.8,6.8,0,0,1-3.81,6.15,5.67,5.67,0,0,1,2.09,4.59c0,4-2.54,6.69-7.21,6.69A10.58,10.58,0,0,1,70.77,87l2.17-3.12a7.53,7.53,0,0,0,4.72,1.64c1.72,0,2.83-.9,2.83-2.62,0-1.48-.94-2.34-4.35-4-4.67-2.29-6.76-3.93-6.76-8a6.8,6.8,0,0,1,3.81-6.15,5.71,5.71,0,0,1-2.09-4.6c0-4,2.54-6.68,7.22-6.68a10.57,10.57,0,0,1,6.76,2.34l-2.17,3.11a7.57,7.57,0,0,0-4.72-1.64c-1.72,0-2.83.91-2.83,2.63,0,1.47,1,2.34,4.35,4C84.38,66.22,86.47,67.86,86.47,71.92Zm-4.22.37c0-2.13-1-3.07-4.51-4.8-.45-.24-.9-.45-1.31-.65-1.72.82-2.83,1.93-2.83,3.69,0,2.13,1,3.07,4.51,4.8.45.24.9.45,1.31.65C81.14,75.16,82.25,74.05,82.25,72.29Z" style="fill:#6b8f00"/><path d="M109.65,34.62H49.75a8.15,8.15,0,0,0-8.14,8.14h0l.46,71.28h0a7.69,7.69,0,0,0,7.68,7.67h59.9a1.5,1.5,0,0,0,1.5-1.5V36.12A1.5,1.5,0,0,0,109.65,34.62Zm-58.4,3h56.9v68.74H51.25Zm-3,.25v68.64A7.73,7.73,0,0,0,45,108l-.42-65.23A5.13,5.13,0,0,1,48.25,37.87Zm1.5,80.86a4.69,4.69,0,0,1,0-9.37h58.4v3.7l-.07,0H49.75a1,1,0,0,0,0,2h58.4v3.7Z" style="fill:#6b8f00"/></svg>