<?xml version="1.0" encoding="utf-8"?>
<!-- Generator: Adobe Illustrator 25.1.0, SVG Export Plug-In . SVG Version: 6.00 Build 0)  -->
<svg version="1.1" id="Layer_1" xmlns="http://www.w3.org/2000/svg" xmlns:xlink="http://www.w3.org/1999/xlink" x="0px" y="0px"
	 viewBox="0 0 155.91 155.91" style="enable-background:new 0 0 155.91 155.91;" xml:space="preserve">
<g>
	<path style="fill:none;stroke:#0064A6;stroke-width:3;stroke-linecap:round;stroke-linejoin:round;stroke-miterlimit:10;" d="
		M123.01,132.87"/>
</g>
<g>
	<path style="fill:none;stroke:#0064A6;stroke-width:3;stroke-linecap:round;stroke-linejoin:round;stroke-miterlimit:10;" d="
		M35.43,120.47"/>
</g>
<path style="fill:#6b8f00;" d="M121.11,49.85l-1.55-1.55c0,0,0,0,0,0l-12.38-12.38c0,0,0,0,0,0l-1.55-1.55
	c-0.59-0.59-1.54-0.59-2.12,0s-0.59,1.54,0,2.12l0.49,0.49l-67.06,67.06c-1.94,1.94-3,4.51-3,7.25s1.07,5.32,3,7.25
	c1.94,1.94,4.51,3,7.25,3s5.32-1.07,7.25-3l67.06-67.06l0.49,0.49c0.29,0.29,0.68,0.44,1.06,0.44s0.77-0.15,1.06-0.44
	C121.69,51.39,121.69,50.44,121.11,49.85z M63.23,102.46L53.02,92.25L71.6,73.68L81.8,83.88L63.23,102.46z M104.99,60.75H84.47
	l21.65-21.65l10.26,10.26L104.99,60.75z"/>
<g>
	<path style="fill:#6b8f00;" d="M68.96,92.71c-1.71,1.71-4.48,1.71-6.19,0c-1.71-1.71-1.71-4.48,0-6.19c3.1-3.1,9.29-3.1,9.29-3.1
		S72.06,89.62,68.96,92.71z"/>
</g>
</svg>
