<?xml version="1.0" encoding="utf-8"?>
<!-- Generator: Adobe Illustrator 24.3.0, SVG Export Plug-In . SVG Version: 6.00 Build 0)  -->
<svg version="1.1" id="Layer_2" xmlns="http://www.w3.org/2000/svg" xmlns:xlink="http://www.w3.org/1999/xlink" x="0px" y="0px"
	 viewBox="0 0 155.91 155.91" style="enable-background:new 0 0 155.91 155.91;" xml:space="preserve">
<g>
	<path style="fill:#6b8f00;" d="M52.29,107.8h51.34V75.22c0-14.15-11.51-25.67-25.67-25.67S52.29,61.07,52.29,75.22V107.8z
		 M55.29,75.22c0-12.5,10.17-22.67,22.67-22.67s22.67,10.17,22.67,22.67v29.58H55.29V75.22z"/>
	<path style="fill:#6b8f00;" d="M102.12,109.71H53.78c-3.33,0-6.03,2.71-6.03,6.03l0.01,5.78h60.39l0.01-5.78
		C108.16,112.42,105.45,109.71,102.12,109.71z M105.15,118.52h-54.4l0-2.78c0-1.67,1.36-3.03,3.03-3.03h48.34
		c1.67,0,3.03,1.36,3.03,3.03L105.15,118.52z"/>
	<path style="fill:#6b8f00;" d="M76.44,55.21c-0.83,0-1.5,0.67-1.5,1.5s0.67,1.5,1.5,1.5c10,0,18.14,8.13,18.14,18.13v24.24
		c0,0.83,0.67,1.5,1.5,1.5s1.5-0.67,1.5-1.5V76.35C97.58,64.7,88.1,55.21,76.44,55.21z"/>
	<path style="fill:#6b8f00;" d="M49.61,64.78c0.4,0,0.79-0.25,0.94-0.65c0.19-0.52-0.07-1.09-0.59-1.29l-14.17-5.31
		c-0.52-0.19-1.09,0.07-1.29,0.59c-0.19,0.52,0.07,1.09,0.59,1.29l14.17,5.31C49.37,64.76,49.49,64.78,49.61,64.78z"/>
	<path style="fill:#6b8f00;" d="M57.67,51.99c0.2,0.25,0.49,0.39,0.79,0.39c0.21,0,0.43-0.07,0.61-0.21
		c0.44-0.34,0.51-0.97,0.18-1.4l-12.4-15.94c-0.34-0.44-0.97-0.51-1.4-0.18c-0.44,0.34-0.51,0.97-0.18,1.4L57.67,51.99z"/>
	<path style="fill:#6b8f00;" d="M121.41,58.11c-0.19-0.52-0.77-0.78-1.29-0.59l-14.17,5.31c-0.52,0.19-0.78,0.77-0.58,1.29
		c0.15,0.4,0.53,0.65,0.94,0.65c0.12,0,0.24-0.02,0.35-0.06l14.17-5.31C121.34,59.21,121.6,58.63,121.41,58.11z"/>
	<path style="fill:#6b8f00;" d="M97.44,52.38c0.3,0,0.59-0.13,0.79-0.39l12.4-15.94c0.34-0.44,0.26-1.06-0.17-1.4
		c-0.44-0.34-1.06-0.26-1.4,0.18l-12.4,15.94c-0.34,0.44-0.26,1.06,0.17,1.4C97.01,52.31,97.23,52.38,97.44,52.38z"/>
</g>
</svg>
