<svg id="Layer_2" data-name="Layer 2" xmlns="http://www.w3.org/2000/svg" viewBox="0 0 155.91 155.91"><path d="M34.2,78.39c0,.47,0,.94,0,1.4.66,16.47,11.69,30.94,26.23,34.41a1.45,1.45,0,0,0,.35,0,1.5,1.5,0,0,0,.35-2.95,27.62,27.62,0,0,1-4-1.3,110.48,110.48,0,0,1-3.45-13.3,97.23,97.23,0,0,1,15.9-1.46v3.12a1.5,1.5,0,0,0,3,0V95.21a57.73,57.73,0,0,1,8.63.58,1.5,1.5,0,1,0,.4-3,60.69,60.69,0,0,0-9-.61V79.74H89.86a69,69,0,0,1-.64,9.94,1.51,1.51,0,0,0,1.29,1.69h.2a1.51,1.51,0,0,0,1.49-1.3,73.46,73.46,0,0,0,.66-10.34H105A25.26,25.26,0,0,1,103.42,89a1.5,1.5,0,0,0,2.8,1.06C107.75,86,108,82.79,108,78.24a36.84,36.84,0,0,0-6.65-21,4.68,4.68,0,0,0-.46-.65A36.54,36.54,0,0,0,71.27,41.32H71A36.43,36.43,0,0,0,55.38,45a8.37,8.37,0,0,0-1.08.54A38.07,38.07,0,0,0,47.55,50,36.72,36.72,0,0,0,34.2,78.11Zm22.44-30.7a33.23,33.23,0,0,1,13-3.32V60.45A96.34,96.34,0,0,1,53.74,59,100.72,100.72,0,0,1,56.64,47.69Zm13,15.76V76.74H51.89a99.31,99.31,0,0,1,1.32-14.83A99.3,99.3,0,0,0,69.61,63.45ZM49.47,52.32a37.49,37.49,0,0,1,3.36-2.46c-.8,2.82-1.47,5.65-2,8.51q-3-.63-5.88-1.45A34.67,34.67,0,0,1,49.47,52.32ZM43,59.49c2.42.71,4.84,1.32,7.28,1.84a103,103,0,0,0-1.38,15.41H37.24A33.45,33.45,0,0,1,43,59.49Zm5.89,20.25A101.09,101.09,0,0,0,50.23,94.3q-4.14.84-8.21,2a36.27,36.27,0,0,1-4.8-16.6Zm4.55,28.38A32.15,32.15,0,0,1,43.72,99q3.49-1,7-1.72C51.54,101.3,52.49,105,53.43,108.12Zm-.25-14.39a96.42,96.42,0,0,1-1.3-14H69.61V92.23A101.5,101.5,0,0,0,53.18,93.73ZM72.61,44.35a33.26,33.26,0,0,1,12.3,2.89A100.71,100.71,0,0,1,88,59a98.47,98.47,0,0,1-15.35,1.44Zm0,32.39V63.45A100.79,100.79,0,0,0,88.51,62a100,100,0,0,1,1.32,14.78Zm16-27.52a34.18,34.18,0,0,1,8.75,7.67q-3.23.88-6.49,1.56Q90,53.79,88.65,49.22Zm4.18,27.52A102.19,102.19,0,0,0,91.44,61.4c2.64-.54,5.27-1.18,7.86-1.93A33.78,33.78,0,0,1,105,76.74Z" style="fill:#6b8f00"/><path d="M121.09,92a1.11,1.11,0,0,0-1.23-.54,63.29,63.29,0,0,1-15.65,2.21c-1.79,0-3.28-.15-4.58-.25-3.15-.24-5.42-.42-8.71.67C85,96,81.41,99.13,80.31,103.36a10.43,10.43,0,0,0-.27,1.48,8.53,8.53,0,0,0-2.47-1.16,10.91,10.91,0,0,0-5-.38,18.4,18.4,0,0,1-2.89.12,18.07,18.07,0,0,1-9.27-3.36,1.07,1.07,0,0,0-1.31.06,1.12,1.12,0,0,0-.3,1.25,30,30,0,0,0,3.6,6.13,31.64,31.64,0,0,0,5.74,5.77c.21.16,5.08,3.92,9,4.12h.35c.45,0,.8,0,.92-.05a7.75,7.75,0,0,0,4.21-2,4.3,4.3,0,0,0,1.07-1.43,11.85,11.85,0,0,0,5.74,2.47,12.51,12.51,0,0,0,1.4.09c2.76,0,6.47-1.24,13.85-8,3.75-3.43,14.17-13.27,16.22-15.21A1.09,1.09,0,0,0,121.09,92ZM82,112.88a2.37,2.37,0,0,1-.67,1,5.8,5.8,0,0,1-3.13,1.52,5.08,5.08,0,0,1-.93,0c-3.28-.16-7.81-3.66-7.86-3.7a29.69,29.69,0,0,1-5.38-5.4c-.38-.5-.75-1-1.1-1.56A35.39,35.39,0,0,0,69,108.31a15.08,15.08,0,0,0,3.63.78,13.12,13.12,0,0,1,2.54.48c1.42.46,2.86,1.09,4.91,3.77a.53.53,0,0,0,.4.19.45.45,0,0,0,.3-.1.5.5,0,0,0,.1-.7c-2.23-2.91-3.89-3.62-5.41-4.11a13.17,13.17,0,0,0-2.72-.52,14.25,14.25,0,0,1-3.42-.73,33.33,33.33,0,0,1-5.6-3.27,17.87,17.87,0,0,0,5.84,1.32,20.29,20.29,0,0,0,3.18-.13,9.09,9.09,0,0,1,4.28.32,6.15,6.15,0,0,1,3,2,13.1,13.1,0,0,0,.72,2.85,6.36,6.36,0,0,0,1.29,2.09s0,0,0,.07ZM103.31,107c-8.75,8-11.71,7.64-13.65,7.39a10.48,10.48,0,0,1-5.88-3,4.37,4.37,0,0,1-1.11-1.67,11.54,11.54,0,0,1-.58-2.24,1,1,0,0,0-.08-.65,8.74,8.74,0,0,1,.23-3c.92-3.53,4.05-6.19,9.3-7.92a13.88,13.88,0,0,1,4.64-.75c1,0,2.07.08,3.29.17s2.85.22,4.69.26A53.65,53.65,0,0,0,115,94.53l-1.16.7a69.38,69.38,0,0,1-9,4.87,23.66,23.66,0,0,1-5.86,1.28,22.44,22.44,0,0,0-4.57.9,20.69,20.69,0,0,0-10,7.71.5.5,0,0,0,.1.7.54.54,0,0,0,.3.1.51.51,0,0,0,.4-.2,19.77,19.77,0,0,1,9.48-7.36,21,21,0,0,1,4.37-.85,25.28,25.28,0,0,0,6.09-1.34,68.74,68.74,0,0,0,9.2-5c.66-.39,1.25-.75,1.76-1C112.09,98.81,106,104.54,103.31,107Z" style="fill:#6b8f00"/></svg>