<?xml version="1.0" encoding="utf-8"?>
<!-- Generator: Adobe Illustrator 25.1.0, SVG Export Plug-In . SVG Version: 6.00 Build 0)  -->
<svg version="1.1" id="Layer_2" xmlns="http://www.w3.org/2000/svg" xmlns:xlink="http://www.w3.org/1999/xlink" x="0px" y="0px"
	 viewBox="0 0 155.9 155.9" style="enable-background:new 0 0 155.9 155.9;" xml:space="preserve">
<path style="fill:#6b8f00;" d="M114.9,40.1l-5.5-5.2c-0.6-0.6-1.5-0.6-2.1,0L87.5,54.6c-0.3,0.3-0.4,0.7-0.4,1.1s0.2,0.8,0.5,1.1
	l8.3,8.1c-1.2,2.1-4.9,8-14.1,17.2c-9.6,9.6-16.7,12-18.8,12.5l-6.8-6.5c-0.6-0.6-1.5-0.6-2.1,0l-19.8,19.8
	c-0.3,0.3-0.4,0.7-0.4,1.1c0,0.4,0.2,0.8,0.5,1.1l5.5,5.2c0.2,0.2,3.4,3.3,10.4,3.3c0.9,0,1.8,0,2.7-0.2
	c11.2-1.2,24.7-9.7,40.1-25.1c15.4-15.4,23.8-28.9,25.1-40.1C119,44.4,115.1,40.3,114.9,40.1z M115.1,52.9
	c-0.8,7.2-5.7,19.8-24.2,38.3c-30.8,30.8-45.3,24.3-48.4,22.3l13.9-13.9c0.4-0.4,0.4-1,0-1.4s-1-0.4-1.4,0l-14,14l-3.5-3.3
	l17.6-17.6l6.3,6c0.3,0.3,0.8,0.5,1.2,0.4c0.4,0,8.9-1.1,21.3-13.5C96.1,72,99,65.5,99.1,65.2c0.2-0.6,0.1-1.2-0.3-1.7l-3.2-3.1
	L108.1,48c0.4-0.4,0.4-1,0-1.4s-1-0.4-1.4,0L94.2,59l-3.5-3.4L108.4,38l4.4,4.2C112.8,42.3,115.9,45.6,115.1,52.9z"/>
</svg>
