<?xml version="1.0" encoding="utf-8"?>
<!-- Generator: Adobe Illustrator 25.1.0, SVG Export Plug-In . SVG Version: 6.00 Build 0)  -->
<svg version="1.1" id="Layer_2" xmlns="http://www.w3.org/2000/svg" xmlns:xlink="http://www.w3.org/1999/xlink" x="0px" y="0px"
	 viewBox="0 0 155.9 155.9" style="enable-background:new 0 0 155.9 155.9;" xml:space="preserve">
<g>
	<path style="fill:#6b8f00;" d="M95.4,54.9c0-9.6-7.8-17.4-17.4-17.4c-9.6,0-17.4,7.8-17.4,17.4S68.3,72.4,78,72.4
		C87.6,72.4,95.4,64.5,95.4,54.9z M78,69.4c-8,0-14.4-6.5-14.4-14.4c0-8,6.5-14.4,14.4-14.4c8,0,14.4,6.5,14.4,14.4
		C92.4,62.9,85.9,69.4,78,69.4z"/>
	<path style="fill:#6b8f00;" d="M95.7,76.5H60.2c-6.7,0-12.1,5.4-12.1,12.1v31.9c0,0.5,0.2,0.9,0.6,1.2c0.3,0.2,0.6,0.3,0.9,0.3
		c0.1,0,0.3,0,0.4-0.1c0.7-0.2,1.1-0.8,1.1-1.5V88.6c0-5,4.1-9.1,9.1-9.1h35.4c5,0,9.1,4.1,9.1,9.1v30.3l-40.9-3.4c0,0-0.1,0-0.1,0
		c-3.1,0-5.6-2.5-5.6-5.6s2.5-5.6,5.5-5.6L92,106c0.8,0.1,1.5-0.6,1.6-1.4c0-0.5-0.2-0.9-0.5-1.2V88.6c0-0.6-0.4-1-1-1H86l0-0.8
		c0-0.6-0.4-1-1-1h-4.5c-0.4-1-1.4-1.8-2.6-1.8c-1.2,0-2.2,0.7-2.6,1.8h-4.5c-0.6,0-1,0.4-1,1v0.8h-6.1c-0.6,0-1,0.4-1,1v12.7
		c-4.3,0.5-7.6,4.1-7.6,8.5c0,4.4,3.3,8,7.6,8.5v2.1c0,0.6,0.4,1,1,1s1-0.4,1-1v-2l41.4,3.4c0.9,0.1,1.6-0.6,1.6-1.5V88.6
		C107.8,81.9,102.4,76.5,95.7,76.5z M91.1,89.6V103l-26.3-1.6V89.6H91.1z"/>
	<path style="fill:#6b8f00;" d="M58.5,55.9c0.6,0,1-0.4,1-1c0-10.2,8.3-18.5,18.5-18.5c10.2,0,18.5,8.3,18.5,18.5v3.5
		c0,0.6,0.4,1,1,1c1.4,0,2.6-0.7,3.5-1.7c0.5,0.7,0.8,1.5,0.8,2.4c0,1.1-0.4,2.1-1.2,2.8L90.7,73l-1.1-1.1c-0.4-0.4-1-0.4-1.4,0
		s-0.4,1,0,1.4l1.8,1.8c0.2,0.2,0.5,0.3,0.7,0.3s0.5-0.1,0.7-0.3L102,64.5c1.1-1.1,1.8-2.6,1.8-4.3s-0.6-3.1-1.8-4.3l-0.1-0.1
		c0.1-0.3,0.1-0.6,0.1-1c0-2.3-1.8-4.2-4.1-4.5c-2.1-9.1-10.2-16-20-16c-11.3,0-20.5,9.2-20.5,20.5C57.5,55.5,57.9,55.9,58.5,55.9z"
		/>
</g>
</svg>
