<svg id="Layer_2" data-name="Layer 2" xmlns="http://www.w3.org/2000/svg" viewBox="0 0 155.91 155.91"><path d="M119.74,96.36H105.85L99.06,84.6a1.5,1.5,0,0,0-1.3-.75H83.31a1.49,1.49,0,0,0-1.3.75L74.79,97.11a1.49,1.49,0,0,0,0,1.5L82,111.12a1.49,1.49,0,0,0,1.3.75H97.76a1.5,1.5,0,0,0,1.3-.75l6.79-11.76h13.89a1.5,1.5,0,0,0,0-3ZM96.89,108.87H84.18l-6.36-11,6.36-11H96.89l6.36,11Z" style="fill:#6b8f00"/><path d="M82.33,81.07a1.49,1.49,0,0,0,1.29.75H98.07a1.51,1.51,0,0,0,1.3-.75l7.22-12.52a1.49,1.49,0,0,0,0-1.5L99.8,55.29l6.79-11.76A1.5,1.5,0,1,0,104,42L97.21,53.79H83.62a1.49,1.49,0,0,0-1.29.75L75.1,67.05a1.49,1.49,0,0,0,0,1.5Zm2.16-24.28H97.21l6.35,11-6.35,11H84.49l-6.36-11Z" style="fill:#6b8f00"/><path d="M80.8,81.74,73.58,69.23a1.51,1.51,0,0,0-1.3-.75H58.7L51.91,56.72a1.5,1.5,0,1,0-2.6,1.5L56.1,70,49.74,81H36.16a1.5,1.5,0,0,0,0,3H49.74l6.79,11.76a1.5,1.5,0,0,0,1.3.75H72.28a1.49,1.49,0,0,0,1.3-.75L80.8,83.24A1.49,1.49,0,0,0,80.8,81.74ZM71.42,93.5H58.7l-6.36-11,6.36-11H71.42l6.35,11Z" style="fill:#6b8f00"/></svg>